# xmcd
#
# Track frame offsets: 
#        150
#        19752
#        30874
#        50082
#        60225
#        73867
#        89170
#        102718
#        115639
#        126871
#        139472
#        154518
#        170571
#        181296
#        195484
#
# Disc length: 2792 seconds
#
# Revision: 0
# Processed by: cddbd v1.5.2PL0 Copyright (c) Steve Scherf et al.
# Submitted via: ExactAudioCopy v1.0b1
#
DISCID=d10ae60f
DTITLE=徐小明 - 徐小明名曲精選
DYEAR=2000
DGENRE=廣東歌
TTITLE0=高山要低頭
TTITLE1=大號是中華
TTITLE2=草原英雄
TTITLE3=獅子山下
TTITLE4=明仔來的電話
TTITLE5=七弦琴上卷
TTITLE6=雪刀浪子
TTITLE7=斑馬線
TTITLE8=留歩喂留歩
TTITLE9=七弦琴下卷
TTITLE10=青春豆
TTITLE11=再向虎山行
TTITLE12=漁歌
TTITLE13=醒獅
TTITLE14=新變色龍
EXTD=
EXTT0=
EXTT1=
EXTT2=
EXTT3=
EXTT4=
EXTT5=
EXTT6=
EXTT7=
EXTT8=
EXTT9=
EXTT10=
EXTT11=
EXTT12=
EXTT13=
EXTT14=
PLAYORDER=
